<svg width="170" height="28" viewBox="0 0 170 28" fill="none" xmlns="http://www.w3.org/2000/svg">
<path fill-rule="evenodd" clip-rule="evenodd" d="M16.1087 1.85783C17.1566 3.85776 17.6851 5.92658 16.9516 8.16301C16.988 7.89666 17.0358 7.6303 17.0586 7.36395C17.1277 6.29421 16.9765 5.22163 16.6144 4.21366C16.3639 3.45823 16.0449 2.72806 15.7534 1.98641C15.7534 1.97034 15.7351 1.95886 15.7078 1.91982C15.603 2.08974 15.4937 2.24588 15.4048 2.4089C15.1771 2.84057 14.9196 3.26536 14.7215 3.7154C14.3228 4.67289 14.4436 5.62578 14.8809 6.53964C15.1383 7.07235 15.4527 7.57749 15.7329 8.09872C15.9083 8.42706 16.0768 8.76 16.2295 9.09983C16.5172 9.68645 16.6572 10.3355 16.6372 10.9895C16.8035 10.8036 16.9743 10.6199 17.1338 10.4293C17.8971 9.55063 18.4725 8.52276 18.824 7.40988C19.1491 6.39604 19.1053 5.29862 18.7004 4.31441C18.2954 3.33021 17.5559 2.52359 16.6144 2.03922C16.4618 1.95886 16.2978 1.89686 16.1406 1.82568L16.1087 1.85783Z" fill="#98DF5B"/>
<path fill-rule="evenodd" clip-rule="evenodd" d="M9.62793 2.77851C9.91267 2.94383 10.1564 3.09997 10.4115 3.23774C10.9984 3.56387 11.6431 3.77061 12.3091 3.84621C13.5483 3.96332 14.3432 3.52016 14.9127 2.40654C14.9879 2.25499 15.0585 2.10115 15.1269 1.94731C15.1542 1.88761 15.1679 1.82102 15.2066 1.70392C14.161 2.666 13.0198 3.20559 11.6075 2.87495C13.0198 2.99205 14.0904 2.31929 15.0631 1.39394C14.2931 0.686735 13.5574 0.571929 12.7009 1.05412C12.4053 1.22752 12.1221 1.42163 11.8535 1.63504C11.3181 2.08519 10.7082 2.43653 10.0516 2.67289C9.92634 2.71192 9.80333 2.73488 9.62793 2.77851Z" fill="#98DF5B"/>
<path fill-rule="evenodd" clip-rule="evenodd" d="M8.59839 26.4906C5.62114 24.9269 3.22703 22.8306 2.24296 19.4484C2.42292 19.8089 2.58693 20.1762 2.78739 20.5229C3.59939 21.8994 4.68519 23.0916 5.97649 24.0245C6.92411 24.7386 7.93324 25.3655 8.91503 26.0314C8.9508 26.0488 8.98818 26.0626 9.02664 26.0727C9.01297 25.7719 9.02664 25.4872 8.98564 25.2094C8.90819 24.4792 8.86491 23.7398 8.71684 23.0234C8.40021 21.5011 7.45031 20.4311 6.1405 19.6849C5.37512 19.2463 4.5619 18.895 3.77601 18.4909C3.28398 18.236 2.79422 17.9697 2.32041 17.6826C1.47022 17.2077 0.750153 16.5277 0.224715 15.7034C0.176879 16.0776 0.122208 16.4473 0.0857612 16.8193C-0.115974 18.5554 0.0391085 20.3148 0.541348 21.9879C0.997906 23.5153 1.97945 24.8288 3.30989 25.6927C4.64034 26.5566 6.23263 26.9143 7.80112 26.7018C8.05625 26.672 8.31137 26.6077 8.56422 26.5595L8.59839 26.4906Z" fill="#98DF5B"/>
<path fill-rule="evenodd" clip-rule="evenodd" d="M20.9947 22.183C21.0425 23.1956 20.7487 24.3207 20.3364 25.4229C20.2633 25.6105 20.1765 25.7924 20.0767 25.9671C20.0562 26.0038 19.9833 26.013 19.9355 26.0359C19.9182 26.0008 19.9082 25.9626 19.9058 25.9234C20.0334 24.6743 19.3318 23.8271 18.5072 23.0625C17.5708 22.2386 16.5222 21.5543 15.3933 21.0304C12.2163 19.4568 9.03859 17.8793 5.86012 16.298C5.19496 15.9697 4.53209 15.6391 3.87376 15.2946C1.72567 14.1718 0.513814 12.3602 0.142511 9.98139C-0.288018 7.22603 0.616321 4.81739 2.24276 2.63376C2.28987 2.56799 2.34083 2.50512 2.39539 2.44548L2.99904 1.84619C2.90336 2.0758 2.79858 2.30542 2.70746 2.5534C2.53913 3.0083 2.46193 3.49231 2.4803 3.97747C2.49868 4.46263 2.61228 4.9393 2.81453 5.37994C3.35895 6.70251 4.28379 7.72199 5.37948 8.59452C6.20092 9.24032 7.09373 9.78814 8.0401 10.2271C10.4122 11.3522 12.782 12.4803 15.1495 13.6116C16.8405 14.3689 18.3075 15.5557 19.407 17.0558C20.4852 18.5403 21.0437 20.3438 20.9947 22.183Z" fill="#98DF5B"/>
<path d="M29 9.51275L29.7508 9.2056C29.9698 9.75221 30.2382 10.2777 30.5528 10.7754C30.8128 11.1395 31.123 11.4651 31.4742 11.7424C32.2954 12.4077 33.3239 12.7639 34.3806 12.7491C35.1025 12.7821 35.8142 12.5696 36.3998 12.1462C36.6446 11.9714 36.8435 11.7399 36.9792 11.4714C37.1149 11.203 37.1835 10.9056 37.179 10.6048C37.1701 10.1967 37.0394 9.80053 36.8036 9.46725C36.6233 9.21243 36.3906 8.99911 36.1211 8.84159C35.692 8.61135 35.2427 8.42096 34.7788 8.27281L32.8563 7.55615C31.8812 7.25098 30.9884 6.72775 30.2456 6.02614C29.709 5.43452 29.4234 4.65742 29.4493 3.8591C29.4303 3.33601 29.5275 2.8152 29.7341 2.33424C29.9406 1.85328 30.2513 1.42414 30.6438 1.07777C31.4679 0.348028 32.5411 -0.036862 33.6412 0.00278512C34.2654 0.00909598 34.8864 0.0931658 35.4898 0.253049C35.7481 0.322732 36.0131 0.36468 36.2804 0.37818C36.7672 0.348364 37.2431 0.220687 37.6795 0.00278512L38.527 3.77947L37.7762 4.02973C37.5544 3.58227 37.3017 3.15085 37.0198 2.7386C36.7801 2.4135 36.5158 2.10735 36.2292 1.82287C35.5466 1.17655 34.638 0.823327 33.6981 0.838889C33.0673 0.817318 32.449 1.0187 31.952 1.40767C31.7349 1.57921 31.5611 1.79928 31.4445 2.05019C31.328 2.3011 31.2719 2.57584 31.2808 2.85236C31.2862 3.21188 31.3969 3.56192 31.5993 3.8591C31.7891 4.06932 32.0096 4.24959 32.2534 4.39375C32.6865 4.61559 33.1351 4.80568 33.5957 4.96253L35.5125 5.66212L37.0027 6.2309C37.7049 6.47417 38.3096 6.93787 38.7268 7.55286C39.144 8.16785 39.3512 8.90119 39.3176 9.64357C39.3327 10.1845 39.2243 10.7219 39.0005 11.2146C38.7768 11.7074 38.4437 12.1427 38.0265 12.4875C37.0732 13.2514 35.874 13.6417 34.6536 13.5852C33.9177 13.5827 33.1839 13.5046 32.4639 13.352L31.9406 13.2439L31.6107 13.1984C31.4941 13.1793 31.3762 13.1698 31.258 13.17C31.066 13.1687 30.8746 13.1936 30.6893 13.2439C30.4221 13.3399 30.1617 13.4539 29.91 13.5852L29 9.51275Z" fill="#F7F7F7"/>
<path d="M40.4268 8.9724C40.3979 8.35559 40.496 7.73941 40.7152 7.16212C40.9344 6.58484 41.2699 6.05878 41.7009 5.61661C42.1567 5.18947 42.6936 4.85815 43.2798 4.64223C43.866 4.42632 44.4896 4.33022 45.1136 4.35961C45.7377 4.32892 46.3616 4.42441 46.948 4.64039C47.5343 4.85637 48.0711 5.1884 48.5262 5.61661C49.347 6.53842 49.8004 7.72964 49.8004 8.96387C49.8004 10.1981 49.347 11.3893 48.5262 12.3111C48.0711 12.7393 47.5343 13.0714 46.948 13.2873C46.3616 13.5033 45.7377 13.5988 45.1136 13.5681C44.4896 13.5975 43.866 13.5014 43.2798 13.2855C42.6936 13.0696 42.1567 12.7383 41.7009 12.3111C41.2709 11.8717 40.9359 11.3486 40.7167 10.7742C40.4975 10.1999 40.3989 9.58654 40.4268 8.9724ZM45.1136 5.04215C44.7777 5.04495 44.4501 5.14683 44.1718 5.33502C43.8936 5.52322 43.6771 5.78935 43.5494 6.10007C43.1702 7.00822 42.975 7.98257 42.975 8.96671C42.975 9.95085 43.1702 10.9252 43.5494 11.8334C43.6706 12.1492 43.8846 12.4208 44.1634 12.6125C44.4421 12.8041 44.7725 12.9067 45.1107 12.9067C45.449 12.9067 45.7793 12.8041 46.058 12.6125C46.3368 12.4208 46.5509 12.1492 46.672 11.8334C47.0521 10.9274 47.2479 9.95484 47.2479 8.9724C47.2479 7.98996 47.0521 7.01737 46.672 6.11145C46.5423 5.80245 46.3263 5.53732 46.05 5.34771C45.7736 5.1581 45.4486 5.05203 45.1136 5.04215Z" fill="#F7F7F7"/>
<path d="M49.7773 5.36064L52.9341 4.34821L55.522 11.2589L56.6596 8.59698L57.1544 7.45943L57.4047 6.75983C57.0886 6.68041 56.7998 6.51734 56.5686 6.28775C56.4028 6.04402 56.3246 5.75126 56.3467 5.45733C56.3368 5.30697 56.3568 5.15614 56.4056 5.01359C56.4544 4.87103 56.5311 4.7396 56.6311 4.62692C56.7293 4.53144 56.8462 4.45737 56.9744 4.4094C57.1027 4.36143 57.2395 4.34059 57.3762 4.34821C57.5286 4.34543 57.6798 4.37489 57.82 4.43469C57.9602 4.49448 58.0861 4.58326 58.1896 4.69517C58.4131 4.9418 58.5297 5.26703 58.5138 5.59952C58.5138 6.2138 58.1479 7.25277 57.416 8.71642L56.4548 10.6901L55.4139 13.2439H53.8157L51.3927 6.98734C51.2801 6.66893 51.104 6.37673 50.8751 6.12849C50.6839 5.95631 50.4325 5.8664 50.1755 5.87823H49.9821L49.7773 5.36064Z" fill="#F7F7F7"/>
<path d="M67.6145 7.93149L61.8926 9.46719C61.9598 9.95595 62.0957 10.4328 62.2964 10.8834C62.4681 11.2132 62.7086 11.5022 63.0017 11.7309C63.4457 12.0844 63.9984 12.2733 64.5659 12.2656C64.8982 12.2697 65.2276 12.2038 65.5328 12.0722C65.8099 11.9696 66.0691 11.8237 66.3006 11.6399C66.5883 11.3866 66.8494 11.1045 67.0798 10.7981L67.6828 11.2816L67.114 12.1063C66.6972 12.5909 66.168 12.9659 65.5726 13.1984C64.924 13.4682 64.2274 13.6037 63.525 13.5965C62.9536 13.6185 62.3839 13.5223 61.8514 13.3138C61.319 13.1053 60.8354 12.7891 60.4308 12.385C60.0298 11.9673 59.7173 11.4728 59.5121 10.9314C59.3068 10.3899 59.2131 9.81258 59.2364 9.23399C59.1898 7.95308 59.6519 6.70576 60.5218 5.76445C60.9401 5.31818 61.4485 4.96612 62.0134 4.73173C62.5783 4.49733 63.1867 4.38598 63.798 4.40507C64.3695 4.37 64.9409 4.47437 65.4631 4.7092C65.9852 4.94402 66.4425 5.30227 66.7955 5.75307C66.9979 6.01915 67.1626 6.31201 67.2846 6.6233C67.4289 7.04997 67.5392 7.4874 67.6145 7.93149ZM62.2282 6.22516C62.063 6.55775 61.9389 6.90917 61.8585 7.27171C61.7745 7.74087 61.7364 8.2171 61.7447 8.69365L64.1336 8.08506C64.4106 8.04408 64.6616 7.89874 64.835 7.67881C65.0084 7.45887 65.0912 7.18098 65.0664 6.90201C65.0885 6.45329 64.9582 6.01028 64.6967 5.645C64.5818 5.4908 64.4312 5.36676 64.2578 5.28355C64.0845 5.20033 63.8935 5.16042 63.7013 5.16723C63.383 5.17788 63.075 5.28236 62.8159 5.46756C62.5569 5.65275 62.3583 5.91039 62.2452 6.2081L62.2282 6.22516Z" fill="#F7F7F7"/>
<path d="M68.3652 5.59967V5.11621L71.2546 4.41661C71.4366 4.85876 71.5812 5.31539 71.6869 5.78168C71.7723 6.30229 71.8085 6.82979 71.795 7.35719C71.9079 6.96842 72.0485 6.58826 72.2159 6.21963C72.3632 5.92897 72.5405 5.65448 72.7448 5.4006C72.9374 5.10166 73.196 4.85084 73.5007 4.66745C73.8054 4.48405 74.148 4.37295 74.5023 4.34267C74.7909 4.33499 75.0708 4.44124 75.2816 4.63843C75.3842 4.73312 75.4657 4.84847 75.5206 4.97689C75.5755 5.10531 75.6026 5.2439 75.6001 5.38354C75.6072 5.52424 75.5845 5.66485 75.5336 5.79618C75.4826 5.92752 75.4045 6.04662 75.3043 6.1457C75.083 6.33862 74.7956 6.43847 74.5023 6.42439C74.1045 6.39645 73.7268 6.23859 73.4274 5.97506C73.2224 6.19935 73.0324 6.43685 72.8586 6.68604C72.7109 6.92923 72.5835 7.18414 72.4775 7.4482C72.1284 8.15753 71.9345 8.93313 71.9087 9.72331V12.3397L72.7334 12.4705V13.2042H68.6439V12.4705L69.5199 12.3397V8.25017C69.5422 7.65338 69.4828 7.05633 69.3435 6.47559C69.2845 6.24964 69.1603 6.04606 68.9863 5.89029C68.8123 5.73451 68.5963 5.63344 68.3652 5.59967Z" fill="#F7F7F7"/>
<path d="M83.8186 7.93142L78.074 9.46712C78.1466 9.95471 78.2824 10.4308 78.4778 10.8834C78.6517 11.2133 78.8941 11.5023 79.1888 11.7309C79.6308 12.084 80.1815 12.2729 80.7472 12.2655C81.0814 12.2696 81.4127 12.2037 81.7198 12.0721C81.9947 11.9683 82.2518 11.8225 82.482 11.6399C82.7718 11.3869 83.0348 11.1048 83.2669 10.7981L83.8698 11.2815L83.301 12.1062C82.8823 12.5886 82.3536 12.9632 81.7597 13.1983C81.1108 13.4671 80.4144 13.6025 79.7121 13.5964C79.1407 13.6184 78.5709 13.5222 78.0385 13.3137C77.5061 13.1052 77.0224 12.7891 76.6179 12.385C76.2169 11.9672 75.9044 11.4728 75.6992 10.9313C75.4939 10.3898 75.4001 9.81251 75.4235 9.23392C75.3991 8.59949 75.5001 7.9665 75.7207 7.37115C75.9413 6.7758 76.2771 6.2298 76.7089 5.76438C77.1265 5.31884 77.634 4.96722 78.1979 4.73285C78.7618 4.49848 79.369 4.38672 79.9794 4.405C80.5509 4.36944 81.1225 4.47358 81.6448 4.70845C82.167 4.94331 82.6242 5.30183 82.9768 5.753C83.1832 6.0175 83.3499 6.31065 83.4717 6.62323C83.6218 7.04942 83.7378 7.48686 83.8186 7.93142ZM78.4323 6.22509C78.2647 6.55663 78.1404 6.90837 78.0626 7.27164C77.9735 7.74018 77.9335 8.21674 77.9432 8.69358L80.332 8.08499C80.6101 8.04532 80.8624 7.90055 81.037 7.68047C81.2116 7.4604 81.2952 7.18176 81.2705 6.90194C81.2926 6.45322 81.1623 6.01021 80.9008 5.64493C80.7856 5.49108 80.6349 5.36731 80.4616 5.28414C80.2884 5.20096 80.0975 5.16083 79.9054 5.16716C79.5821 5.17145 79.2675 5.27304 79.0027 5.4587C78.7379 5.64436 78.5352 5.90548 78.4209 6.20803L78.4323 6.22509Z" fill="#F7F7F7"/>
<path d="M84.6436 5.79874V5.22997L88.1757 4.34836L88.0847 5.07071V12.3511L88.9151 12.4819V13.2156H84.8199V12.4819L85.7185 12.3511V7.00455C85.7503 6.6812 85.6722 6.35659 85.4967 6.08313C85.2577 5.8854 84.9534 5.78399 84.6436 5.79874ZM85.5024 1.70355C85.5798 1.34986 85.7575 1.02599 86.0143 0.770751C86.1241 0.654186 86.2562 0.560884 86.4028 0.496395C86.5493 0.431906 86.7074 0.397545 86.8675 0.395356C87.04 0.39331 87.2113 0.425424 87.3714 0.489851C87.5315 0.554278 87.6772 0.649747 87.8003 0.770751C87.927 0.890333 88.0274 1.03507 88.095 1.1957C88.1626 1.35633 88.1959 1.52931 88.1927 1.70355V1.81161C88.1939 2.00029 88.1579 2.18735 88.0866 2.36206C88.0154 2.53678 87.9103 2.6957 87.7775 2.82972C87.6535 2.96782 87.5018 3.0782 87.3322 3.15366C87.1627 3.22913 86.9791 3.26799 86.7935 3.26768C86.6032 3.26737 86.416 3.2193 86.249 3.12788C86.0821 3.03646 85.9408 2.9046 85.838 2.7444C85.6317 2.49134 85.5138 2.17773 85.5024 1.85143V1.70355Z" fill="#F7F7F7"/>
<path d="M91.2638 13.551C90.8691 13.4912 90.4856 13.3723 90.1263 13.1984C90.0271 13.1413 89.9455 13.058 89.8903 12.9578C89.8352 12.8575 89.8086 12.744 89.8134 12.6296C89.8259 12.4382 89.8975 12.2554 90.0182 12.1064C90.2223 11.8476 90.4551 11.6129 90.7121 11.4068C91.0363 11.1337 91.2809 10.9347 91.4288 10.838C91.6994 10.6428 91.9804 10.4624 92.2706 10.2976L91.8497 10.1384C91.7534 10.1047 91.6601 10.0628 91.571 10.0133C91.093 9.80597 90.6872 9.46155 90.405 9.02358C90.1209 8.58494 89.9706 8.07305 89.9727 7.55044C89.9689 7.12171 90.0652 6.698 90.2537 6.31294C90.4423 5.92789 90.7181 5.59209 91.0591 5.33221C91.8529 4.72314 92.8349 4.41123 93.8347 4.4506H94.7675C94.8983 4.29134 94.995 4.18897 95.0519 4.1264L95.4842 3.67707C95.7144 3.4149 95.9954 3.20212 96.3102 3.05158C96.625 2.90103 96.967 2.81584 97.3156 2.80115C97.4522 2.7942 97.5888 2.81424 97.7176 2.86011C97.8464 2.90598 97.965 2.97678 98.0664 3.06847C98.1614 3.15434 98.2366 3.25988 98.2867 3.37775C98.3368 3.49563 98.3606 3.623 98.3565 3.751C98.3599 3.86959 98.3384 3.98757 98.2933 4.0973C98.2482 4.20703 98.1806 4.30609 98.0948 4.38804C97.9106 4.55173 97.6699 4.63739 97.4237 4.62693C97.2051 4.63727 96.9892 4.5753 96.8094 4.4506C96.6005 4.25713 96.4306 4.02545 96.3089 3.76807C96.1461 3.86524 95.9903 3.97357 95.8425 4.09228C95.7572 4.16053 95.6036 4.31978 95.3761 4.55867L95.8595 4.6838C96.0031 4.7147 96.1424 4.76243 96.2748 4.82599C96.8074 5.02763 97.2631 5.39179 97.5772 5.86686C97.9 6.3434 98.0706 6.90665 98.0664 7.48218C98.0596 7.90257 97.956 8.31573 97.7636 8.68958C97.5713 9.06343 97.2954 9.38792 96.9573 9.63786C96.2028 10.2494 95.255 10.5721 94.284 10.5479C94.0465 10.5465 93.8092 10.5332 93.5731 10.5081C93.2944 10.474 93.0669 10.4512 92.9019 10.4228C92.6654 10.5945 92.4429 10.7847 92.2364 10.9915C92.129 11.0998 92.0643 11.2432 92.0544 11.3954C92.0544 11.6456 92.2706 11.7708 92.7028 11.7708L93.6186 11.8276L95.4102 11.913C96.3161 11.8466 97.2237 12.0171 98.0437 12.4078C98.3038 12.571 98.5152 12.8014 98.6553 13.0747C98.7955 13.348 98.8592 13.654 98.8399 13.9606C98.8354 14.3791 98.7122 14.7879 98.4847 15.1392C98.2571 15.4906 97.9346 15.7702 97.5545 15.9456C96.4592 16.4813 95.2458 16.7298 94.0281 16.668C92.8864 16.7146 91.7449 16.5723 90.6495 16.2471C89.8646 15.9702 89.4722 15.5664 89.4722 15.0356C89.4803 14.9121 89.5132 14.7916 89.5689 14.6812C89.6246 14.5708 89.702 14.4727 89.7964 14.3928C89.9392 14.2497 90.0997 14.1254 90.2741 14.0231C90.3652 13.9264 90.7235 13.7786 91.2638 13.551ZM92.7313 13.7274L92.0317 13.6762C91.7815 13.8022 91.553 13.9673 91.3548 14.1653C91.2228 14.3117 91.1516 14.5029 91.1558 14.7C91.1558 15.0924 91.4174 15.4053 91.935 15.6328C92.6269 15.8834 93.361 15.9974 94.0963 15.9683C94.826 15.994 95.5534 15.8721 96.2349 15.61C96.8037 15.3711 97.0597 15.0412 97.0597 14.6602C97.0597 14.2791 96.7525 13.9833 96.1439 13.9264L95.2282 13.8525L93.8631 13.7842L92.7313 13.7274ZM92.4298 7.30587V7.49925C92.3929 8.09914 92.544 8.6956 92.8621 9.20558C92.9947 9.3911 93.1697 9.54229 93.3725 9.6466C93.5753 9.75091 93.8 9.80532 94.0281 9.80532C94.2561 9.80532 94.4809 9.75091 94.6837 9.6466C94.8865 9.54229 95.0615 9.3911 95.1941 9.20558C95.4959 8.70423 95.6387 8.12319 95.6036 7.53907C95.639 6.89496 95.4911 6.25401 95.177 5.69054C95.0507 5.48093 94.8709 5.30877 94.6559 5.1918C94.441 5.07483 94.1987 5.01728 93.9541 5.02507C92.9379 5.03645 92.4298 5.79671 92.4298 7.30587Z" fill="#F7F7F7"/>
<path d="M99.1245 5.20147L102.048 4.37674C102.153 4.57596 102.243 4.78327 102.315 4.99671C102.386 5.24088 102.44 5.48991 102.475 5.7418L102.981 5.27541C103.334 4.98047 103.739 4.75471 104.175 4.60994C104.618 4.45487 105.083 4.37601 105.552 4.37674C105.905 4.36561 106.256 4.4287 106.584 4.56195C106.911 4.69519 107.206 4.89562 107.451 5.15028C107.7 5.40596 107.894 5.70887 108.023 6.04105C108.152 6.37324 108.213 6.72794 108.202 7.08412V12.3794L109.044 12.5103V13.244H104.937V12.5046L105.813 12.3794V7.76097C105.843 7.21196 105.682 6.66955 105.358 6.22527C105.206 6.03809 105.012 5.88917 104.792 5.79041C104.571 5.69164 104.331 5.64578 104.09 5.65649C103.825 5.65146 103.563 5.70588 103.322 5.81575C103.014 5.98056 102.729 6.18518 102.475 6.42434V12.4022L103.305 12.5273V13.2667H99.2098V12.533L100.091 12.4022V7.03862C100.122 6.69393 100.051 6.34776 99.8867 6.04326C99.7899 5.941 99.6706 5.86261 99.5384 5.81425C99.4061 5.76589 99.2645 5.74888 99.1245 5.76456V5.20147Z" fill="#F7F7F7"/>
<path d="M114.59 13.2441V12.4193C114.824 12.4511 115.062 12.432 115.287 12.3633C115.513 12.2946 115.722 12.1779 115.898 12.0212C116.168 11.5346 116.281 10.9764 116.222 10.4229V2.19272C116.004 1.91215 115.75 1.66161 115.466 1.44762C115.196 1.29226 114.898 1.19175 114.59 1.15186V0.366943H118.571L125.215 9.95085V2.55674C125.214 2.38349 125.189 2.21118 125.141 2.04484C125.091 1.88176 125.018 1.72663 124.925 1.58413C124.817 1.4335 124.663 1.32178 124.487 1.26561C124.205 1.18131 123.91 1.14478 123.616 1.15754V0.366943H127.763V1.14048C127.534 1.10938 127.301 1.12727 127.079 1.19296C126.857 1.25866 126.652 1.37066 126.477 1.52156C126.214 2.0146 126.105 2.57543 126.164 3.1312V13.2327H124.174L117.172 3.02313V10.4172C117.111 10.9726 117.224 11.5332 117.496 12.0212C117.685 12.1758 117.904 12.2899 118.139 12.3564C118.373 12.423 118.619 12.4405 118.861 12.408V13.2327L114.59 13.2441Z" fill="#F7F7F7"/>
<path d="M133.718 7.43677V6.868C133.722 6.61075 133.666 6.3561 133.553 6.1248C133.441 5.8935 133.275 5.69211 133.069 5.53706C132.874 5.36974 132.651 5.23875 132.41 5.1503C132.119 5.0618 131.815 5.02145 131.511 5.03085C131.34 6.02621 130.817 6.52105 129.93 6.52105C129.632 6.53207 129.34 6.43738 129.105 6.25373C129.001 6.16958 128.918 6.06278 128.862 5.94152C128.806 5.82026 128.778 5.68774 128.781 5.55412C128.781 4.74267 129.613 4.33505 131.278 4.33125C132.496 4.27524 133.706 4.55461 134.776 5.13892C135.169 5.34505 135.499 5.65477 135.73 6.03467C135.96 6.41457 136.083 6.8502 136.084 7.29458V11.276C136.084 11.9358 136.272 12.2657 136.653 12.2657C136.88 12.2309 137.084 12.1084 137.222 11.9244L137.529 12.4648C137.317 12.8078 137.017 13.0872 136.659 13.2735C136.302 13.4597 135.901 13.5458 135.498 13.5227C135.153 13.5248 134.811 13.451 134.497 13.3066C134.319 13.23 134.161 13.1132 134.036 12.9653C133.905 12.7678 133.811 12.5481 133.758 12.3169L133.257 12.7207C132.498 13.2435 131.597 13.5232 130.675 13.5227C130.048 13.5448 129.437 13.3248 128.969 12.9084C128.747 12.7035 128.573 12.4529 128.458 12.1739C128.343 11.895 128.29 11.5945 128.303 11.2931C128.303 10.1025 128.967 9.19051 130.294 8.55727C130.729 8.33577 131.18 8.14569 131.642 7.98849C132.068 7.86905 132.762 7.67566 133.718 7.43677ZM133.718 11.6799V8.14775C133.261 8.25724 132.815 8.40959 132.387 8.60277C132.073 8.7674 131.783 8.97618 131.528 9.22275C131.298 9.42782 131.113 9.67925 130.987 9.96056C130.86 10.2419 130.795 10.5467 130.794 10.8551C130.788 11.046 130.819 11.2362 130.886 11.4149C130.954 11.5935 131.056 11.757 131.187 11.896C131.321 12.0352 131.483 12.1443 131.662 12.2158C131.842 12.2874 132.035 12.32 132.228 12.3112C132.461 12.3163 132.693 12.2757 132.91 12.1918C133.2 12.056 133.471 11.884 133.718 11.6799Z" fill="#F7F7F7"/>
<path d="M137.358 5.48571V4.75199H138.905V2.07304L141.288 1.26538V4.80318H143.478V5.48571H141.288V10.8152C141.288 11.8788 141.675 12.4134 142.454 12.4134C142.87 12.3816 143.266 12.225 143.592 11.9641L143.899 12.5954C143.506 12.9086 143.069 13.1617 142.602 13.3462C142.186 13.4852 141.749 13.5525 141.311 13.5453C140.832 13.5577 140.357 13.4584 139.923 13.2552C139.581 13.1105 139.298 12.8538 139.121 12.5272C138.955 12.0961 138.883 11.6346 138.911 11.1735V5.48571H137.358Z" fill="#F7F7F7"/>
<path d="M143.785 5.79286V5.25822L147.3 4.37661L147.226 5.09327V10.4739C147.226 11.7423 147.71 12.3793 148.682 12.3793C148.812 12.3813 148.941 12.3717 149.069 12.3509C149.224 12.3112 149.377 12.2598 149.524 12.1973C149.709 12.1136 149.884 12.0106 150.047 11.8902C150.227 11.7216 150.384 11.5304 150.514 11.3214V7.02712C150.548 6.70107 150.467 6.3734 150.286 6.10001C150.065 5.89446 149.775 5.7806 149.473 5.78149V5.24684L153.005 4.36523L152.897 5.08189V11.1735C152.875 11.5044 152.95 11.8345 153.113 12.1234C153.199 12.2332 153.308 12.3234 153.431 12.3881C153.555 12.4528 153.691 12.4906 153.83 12.4988V12.9822C153.221 13.0562 152.783 13.113 152.51 13.1642C152.03 13.2648 151.555 13.3901 151.088 13.5396C150.942 13.3639 150.814 13.1733 150.707 12.9708C150.621 12.7267 150.556 12.4755 150.514 12.2201L150.116 12.6011C149.422 13.2314 148.516 13.575 147.579 13.5624C147.208 13.5863 146.836 13.5312 146.488 13.4008C146.14 13.2704 145.824 13.0676 145.56 12.8059C145.048 12.2086 144.791 11.4348 144.843 10.6502V7.03849C144.877 6.71244 144.796 6.38478 144.616 6.11139C144.389 5.90426 144.092 5.79048 143.785 5.79286Z" fill="#F7F7F7"/>
<path d="M154.495 5.59961V5.11615L157.385 4.41655C157.566 4.8587 157.711 5.31533 157.817 5.78162C157.899 6.30257 157.935 6.8298 157.925 7.35713C158.038 6.96836 158.178 6.5882 158.346 6.21957C158.493 5.92891 158.67 5.65442 158.875 5.40054C159.067 5.1016 159.326 4.85078 159.631 4.66739C159.935 4.48399 160.278 4.37289 160.632 4.34262C160.92 4.33907 161.198 4.44475 161.411 4.63837C161.606 4.84081 161.715 5.11095 161.715 5.39201C161.715 5.67308 161.606 5.9432 161.411 6.14564C161.304 6.24231 161.178 6.31671 161.041 6.36454C160.904 6.41237 160.76 6.43269 160.615 6.42434C160.217 6.39639 159.84 6.23853 159.54 5.975C159.334 6.19787 159.143 6.43549 158.971 6.68598C158.824 6.93007 158.694 7.18483 158.585 7.44814C158.247 8.15997 158.065 8.93553 158.05 9.72325V12.3396L158.875 12.4704V13.2042H154.78V12.4704L155.661 12.3396V8.25012C155.685 7.65294 155.624 7.05541 155.479 6.47553C155.42 6.24843 155.296 6.0439 155.12 5.88794C154.945 5.73198 154.727 5.63162 154.495 5.59961Z" fill="#F7F7F7"/>
<path d="M169.943 7.93149L164.204 9.46719C164.274 9.95537 164.41 10.4318 164.608 10.8834C164.782 11.212 165.022 11.5006 165.313 11.7309C165.757 12.0844 166.31 12.2733 166.877 12.2656C167.212 12.269 167.543 12.2032 167.85 12.0722C168.125 11.9683 168.382 11.8225 168.612 11.6399C168.9 11.3866 169.161 11.1045 169.391 10.7981L170 11.2816L169.431 12.1063C169.011 12.5895 168.48 12.9641 167.884 13.1984C167.237 13.4676 166.543 13.603 165.842 13.5965C165.27 13.6186 164.699 13.5224 164.166 13.314C163.633 13.1055 163.148 12.7893 162.742 12.385C162.343 11.9662 162.032 11.4715 161.828 10.9302C161.624 10.3889 161.531 9.81207 161.554 9.23399C161.506 7.95388 161.966 6.70666 162.833 5.76445C163.252 5.31818 163.76 4.96612 164.325 4.73173C164.89 4.49733 165.498 4.38598 166.11 4.40507C166.681 4.37 167.253 4.47437 167.775 4.7092C168.297 4.94402 168.754 5.30227 169.107 5.75307C169.311 6.01894 169.478 6.31179 169.602 6.6233C169.75 7.04979 169.864 7.48719 169.943 7.93149ZM164.557 6.22516C164.391 6.5569 164.269 6.90865 164.193 7.27171C164.104 7.74025 164.064 8.21681 164.073 8.69365L166.462 8.08506C166.739 8.04408 166.99 7.89874 167.164 7.67881C167.337 7.45887 167.42 7.18098 167.395 6.90201C167.419 6.45396 167.291 6.01101 167.031 5.645C166.915 5.49106 166.763 5.36732 166.589 5.28418C166.415 5.20104 166.223 5.16093 166.03 5.16723C165.709 5.17454 165.397 5.27748 165.135 5.46289C164.872 5.64831 164.671 5.90776 164.557 6.2081V6.22516Z" fill="#F7F7F7"/>
<path d="M29 27.5234V22.6831H29.364V27.5234H29Z" fill="#98DF5B"/>
<path d="M36.4507 27.5232L33.6409 23.2346V27.5232H33.2939V22.6829H33.6864L36.5303 26.9601V22.6829H36.8716V27.5232H36.4507Z" fill="#98DF5B"/>
<path d="M40.7852 27.5232V22.6829H41.1492V27.5232H40.7852Z" fill="#98DF5B"/>
<path d="M46.3306 23.0128V27.5175H45.9722V23.0128H44.4365V22.6772H47.8492V23.0128H46.3306Z" fill="#98DF5B"/>
<path d="M51.1768 27.5232V22.6829H51.5351V27.5232H51.1768Z" fill="#98DF5B"/>
<path d="M58.4855 27.5232L57.9963 26.2434H55.6416L55.1638 27.5232H54.7998L56.6313 22.6829H56.9782L58.8381 27.5232H58.4855ZM56.7791 23.172L55.7497 25.9135H57.8314L56.7791 23.172Z" fill="#98DF5B"/>
<path d="M62.848 23.0128V27.5175H62.4953V23.0128H60.9653V22.6772H64.378V23.0128H62.848Z" fill="#98DF5B"/>
<path d="M67.6938 27.5232V22.6829H68.0522V27.5232H67.6938Z" fill="#98DF5B"/>
<path d="M73.37 27.5232H73.0345L71.3281 22.6829H71.6978L73.2335 27.0113L74.7522 22.6829H75.1276L73.37 27.5232Z" fill="#98DF5B"/>
<path d="M78.3525 27.5232V22.6829H81.4524V23.0128H78.7166V24.7987H81.1225V25.1343H78.7166V27.1819H81.4524V27.5175L78.3525 27.5232Z" fill="#98DF5B"/>
</svg>
