<svg width="130" height="130" viewBox="0 0 130 130" fill="none" xmlns="http://www.w3.org/2000/svg">
<circle cx="65" cy="65" r="65" fill="#98DF5B"/>
<path fill-rule="evenodd" clip-rule="evenodd" d="M82.543 28.3442C85.7657 34.4463 87.3911 40.7586 85.1352 47.5823C85.2473 46.7696 85.3944 45.9569 85.4645 45.1442C85.677 41.8803 85.2119 38.6077 84.0983 35.5322C83.3277 33.2273 82.3469 30.9994 81.4501 28.7365C81.4501 28.6875 81.3941 28.6524 81.31 28.5333C80.9877 29.0518 80.6514 29.5282 80.3782 30.0256C79.6776 31.3427 78.886 32.6388 78.2765 34.0119C77.0504 36.9334 77.4217 39.8408 78.7669 42.6291C79.5585 44.2545 80.5253 45.7958 81.3871 47.3861C81.9265 48.3879 82.445 49.4038 82.9143 50.4407C83.7993 52.2305 84.23 54.2107 84.1684 56.2065C84.6798 55.639 85.2053 55.0785 85.6957 54.4971C88.0433 51.8161 89.8129 48.6799 90.894 45.2844C91.8939 42.191 91.7591 38.8426 90.5137 35.8396C89.2684 32.8366 86.9939 30.3755 84.0983 28.8976C83.6289 28.6524 83.1245 28.4633 82.6411 28.2461L82.543 28.3442Z" fill="#FAFAFA"/>
<path fill-rule="evenodd" clip-rule="evenodd" d="M62.6118 31.1536C63.4875 31.658 64.2372 32.1344 65.0218 32.5547C66.8268 33.5498 68.8096 34.1806 70.8577 34.4113C74.6689 34.7686 77.1139 33.4164 78.8654 30.0186C79.0966 29.5562 79.3138 29.0868 79.524 28.6174C79.608 28.4353 79.6501 28.2321 79.7692 27.8748C76.5535 30.8103 73.0435 32.4566 68.6999 31.4478C73.0435 31.8051 76.3363 29.7524 79.3278 26.929C76.9598 24.7712 74.6969 24.4209 72.0627 25.8922C71.1536 26.4212 70.2827 27.0135 69.4565 27.6646C67.8101 29.0381 65.9341 30.1101 63.9149 30.8313C63.5296 30.9504 63.1513 31.0204 62.6118 31.1536Z" fill="#FAFAFA"/>
<path fill-rule="evenodd" clip-rule="evenodd" d="M59.4447 103.503C50.288 98.7324 42.9248 92.336 39.8983 82.0164C40.4518 83.1163 40.9562 84.2373 41.5727 85.2951C44.0701 89.4949 47.4095 93.1325 51.3809 95.9791C54.2954 98.1579 57.399 100.071 60.4185 102.102C60.5285 102.155 60.6435 102.198 60.7618 102.228C60.7197 101.311 60.7618 100.442 60.6357 99.5941C60.3975 97.3662 60.2644 95.1104 59.809 92.9245C58.8352 88.2796 55.9137 85.0149 51.8853 82.738C49.5314 81.3999 47.0303 80.328 44.6133 79.095C43.1 78.3173 41.5937 77.5046 40.1365 76.6289C37.5217 75.1799 35.3071 73.1049 33.6911 70.5898C33.544 71.7318 33.3759 72.8597 33.2638 73.9947C32.6433 79.2919 33.1203 84.6601 34.6649 89.7649C36.0691 94.4253 39.0879 98.4329 43.1797 101.069C47.2715 103.705 52.1687 104.796 56.9926 104.148C57.7773 104.057 58.5619 103.861 59.3396 103.714L59.4447 103.503Z" fill="#FAFAFA"/>
<path fill-rule="evenodd" clip-rule="evenodd" d="M97.5712 90.36C97.7183 93.4496 96.8146 96.8825 95.5465 100.245C95.3216 100.818 95.0547 101.373 94.7478 101.906C94.6848 102.018 94.4606 102.046 94.3135 102.116C94.2605 102.009 94.2296 101.892 94.2224 101.773C94.6147 97.9614 92.4569 95.3762 89.9208 93.0433C87.041 90.5297 83.8159 88.4417 80.3438 86.8431C70.5729 82.0417 60.7997 77.2287 51.0242 72.404C48.9785 71.4021 46.9398 70.3933 44.9151 69.3424C38.3086 65.9166 34.5815 60.3889 33.4395 53.1309C32.1154 44.7238 34.8967 37.3747 39.8989 30.7121C40.0438 30.5114 40.2005 30.3196 40.3683 30.1376L42.2249 28.3091C41.9306 29.0097 41.6083 29.7103 41.3281 30.4669C40.8104 31.8549 40.573 33.3317 40.6295 34.812C40.686 36.2922 41.0354 37.7467 41.6574 39.0911C43.3318 43.1265 46.1762 46.2371 49.546 48.8993C52.0724 50.8697 54.8182 52.5412 57.7288 53.8805C65.0243 57.3134 72.3127 60.7556 79.5941 64.2071C84.7947 66.5178 89.3065 70.1388 92.6881 74.7159C96.0042 79.2456 97.7218 84.7483 97.5712 90.36V90.36Z" fill="#FAFAFA"/>
</svg>
