<svg width="130" height="35" viewBox="0 0 130 35" fill="none" xmlns="http://www.w3.org/2000/svg">
<path fill-rule="evenodd" clip-rule="evenodd" d="M19.177 1.4754C20.4244 4.16762 21.0535 6.95256 20.1803 9.96314C20.2237 9.60459 20.2807 9.24604 20.3078 8.88749C20.3901 7.44746 20.21 6.00359 19.779 4.64671C19.4807 3.62979 19.101 2.64687 18.7539 1.64849C18.7539 1.62686 18.7322 1.6114 18.6997 1.55886C18.5749 1.78759 18.4448 1.99777 18.339 2.21723C18.0678 2.79833 17.7614 3.37015 17.5255 3.97598C17.0509 5.2649 17.1946 6.54765 17.7153 7.77784C18.0217 8.49494 18.396 9.17495 18.7295 9.8766C18.9383 10.3186 19.139 10.7668 19.3207 11.2242C19.6632 12.0139 19.83 12.8876 19.8061 13.7681C20.0041 13.5177 20.2075 13.2705 20.3973 13.0139C21.306 11.8311 21.991 10.4474 22.4095 8.94931C22.7965 7.58453 22.7443 6.10723 22.2622 4.78234C21.7802 3.45745 20.8998 2.37162 19.779 1.71959C19.5973 1.6114 19.402 1.52795 19.2149 1.43213L19.177 1.4754Z" fill="#98DF5B"/>
<path fill-rule="evenodd" clip-rule="evenodd" d="M11.4619 2.71491C11.8009 2.93746 12.0911 3.14765 12.3948 3.3331C13.0934 3.77213 13.861 4.05043 14.6537 4.1522C16.129 4.30984 17.0754 3.71329 17.7533 2.21418C17.8428 2.01018 17.9269 1.80308 18.0083 1.59599C18.0408 1.51563 18.0571 1.42599 18.1032 1.26835C16.8584 2.56346 15.4998 3.28983 13.8185 2.84473C15.4998 3.00237 16.7744 2.09672 17.9323 0.851072C17.0157 -0.100939 16.1398 -0.255487 15.1202 0.393612C14.7682 0.627036 14.4312 0.888348 14.1114 1.17562C13.4741 1.78159 12.7479 2.25455 11.9663 2.57273C11.8172 2.62528 11.6707 2.65618 11.4619 2.71491Z" fill="#98DF5B"/>
<path fill-rule="evenodd" clip-rule="evenodd" d="M10.2362 34.635C6.69183 32.5301 3.8417 29.7081 2.67019 25.1551C2.88443 25.6404 3.07968 26.1349 3.31832 26.6017C4.28499 28.4546 5.57761 30.0595 7.11487 31.3154C8.24299 32.2766 9.44433 33.1205 10.6131 34.0168C10.6557 34.0403 10.7002 34.059 10.746 34.0725C10.7297 33.6676 10.746 33.2843 10.6972 32.9103C10.605 31.9274 10.5535 30.9321 10.3772 29.9677C10.0003 27.9184 8.86942 26.478 7.31012 25.4735C6.39895 24.8831 5.43083 24.4102 4.49525 23.8662C3.9095 23.5231 3.32646 23.1645 2.7624 22.7782C1.75026 22.1389 0.893039 21.2234 0.267518 20.1138C0.21057 20.6176 0.145486 21.1152 0.102097 21.616C-0.138064 23.9531 0.0465577 26.3215 0.644461 28.5737C1.18798 30.6298 2.35648 32.398 3.94035 33.5609C5.52421 34.7238 7.41979 35.2055 9.28705 34.9194C9.59077 34.8792 9.89449 34.7927 10.1955 34.7278L10.2362 34.635Z" fill="#98DF5B"/>
<path fill-rule="evenodd" clip-rule="evenodd" d="M24.9937 28.8365C25.0507 30.1996 24.7009 31.7142 24.21 33.1978C24.123 33.4504 24.0196 33.6952 23.9009 33.9304C23.8765 33.9798 23.7897 33.9922 23.7327 34.0231C23.7122 33.9758 23.7003 33.9243 23.6975 33.8716C23.8493 32.1902 23.0141 31.0496 22.0324 30.0203C20.9177 28.9113 19.6693 27.9901 18.3254 27.2848C14.5433 25.1665 10.7603 23.043 6.97638 20.9144C6.18453 20.4724 5.39539 20.0273 4.61167 19.5636C2.05442 18.0522 0.61173 15.6134 0.169702 12.4112C-0.342832 8.70205 0.733762 5.45965 2.67 2.52016C2.72608 2.43162 2.78675 2.34698 2.8517 2.2667L3.57033 1.45996C3.45643 1.76906 3.33169 2.07815 3.22322 2.41197C3.02282 3.02433 2.93091 3.67589 2.95279 4.32899C2.97466 4.98209 3.1099 5.62376 3.35067 6.21693C3.9988 7.99731 5.0998 9.36969 6.40419 10.5443C7.3821 11.4136 8.44496 12.151 9.57159 12.7419C12.3955 14.2565 15.2167 15.7752 18.0352 17.298C20.0482 18.3174 21.7946 19.915 23.1036 21.9344C24.3872 23.9328 25.052 26.3606 24.9937 28.8365V28.8365Z" fill="#98DF5B"/>
<path d="M35.124 8.069C35.5567 8.069 35.8903 8.11667 36.125 8.212C36.3597 8.3 36.5613 8.39533 36.73 8.498C36.818 8.54933 36.8877 8.58967 36.939 8.619C36.9977 8.641 37.0527 8.652 37.104 8.652C37.1773 8.652 37.2287 8.61167 37.258 8.531C37.2947 8.45033 37.324 8.32933 37.346 8.168H37.599C37.5917 8.30733 37.5807 8.476 37.566 8.674C37.5587 8.86467 37.5513 9.11767 37.544 9.433C37.544 9.74833 37.544 10.1627 37.544 10.676H37.291C37.2617 10.2947 37.1737 9.92433 37.027 9.565C36.8803 9.20567 36.6713 8.91233 36.4 8.685C36.136 8.45033 35.8097 8.333 35.421 8.333C35.069 8.333 34.7793 8.432 34.552 8.63C34.3247 8.828 34.211 9.103 34.211 9.455C34.211 9.74833 34.2843 10.0013 34.431 10.214C34.5777 10.4193 34.7903 10.621 35.069 10.819C35.355 11.017 35.6997 11.2553 36.103 11.534C36.455 11.7613 36.7703 11.9887 37.049 12.216C37.3277 12.4433 37.5513 12.7 37.72 12.986C37.8887 13.272 37.973 13.613 37.973 14.009C37.973 14.493 37.8447 14.8927 37.588 15.208C37.3387 15.5233 37.0087 15.7617 36.598 15.923C36.1873 16.077 35.7363 16.154 35.245 16.154C34.7903 16.154 34.4273 16.11 34.156 16.022C33.8847 15.934 33.6573 15.8423 33.474 15.747C33.3127 15.6443 33.188 15.593 33.1 15.593C33.0267 15.593 32.9717 15.6333 32.935 15.714C32.9057 15.7947 32.88 15.9157 32.858 16.077H32.605C32.6197 15.901 32.627 15.6957 32.627 15.461C32.6343 15.2263 32.638 14.922 32.638 14.548C32.6453 14.1667 32.649 13.6863 32.649 13.107H32.902C32.9313 13.591 33.012 14.0457 33.144 14.471C33.2833 14.889 33.4923 15.2263 33.771 15.483C34.057 15.7397 34.4347 15.868 34.904 15.868C35.1607 15.868 35.388 15.824 35.586 15.736C35.7913 15.6407 35.9563 15.5013 36.081 15.318C36.2057 15.1347 36.268 14.9073 36.268 14.636C36.268 14.328 36.1947 14.0603 36.048 13.833C35.9087 13.6057 35.7143 13.393 35.465 13.195C35.223 12.997 34.9407 12.7953 34.618 12.59C34.2733 12.3627 33.9507 12.1353 33.65 11.908C33.3493 11.6807 33.1073 11.4203 32.924 11.127C32.748 10.8337 32.66 10.4853 32.66 10.082C32.66 9.62 32.7737 9.24233 33.001 8.949C33.2357 8.64833 33.54 8.42833 33.914 8.289C34.2953 8.14233 34.6987 8.069 35.124 8.069ZM42.0758 10.159C42.6112 10.159 43.0805 10.258 43.4838 10.456C43.8872 10.654 44.2025 10.973 44.4298 11.413C44.6572 11.853 44.7708 12.436 44.7708 13.162C44.7708 13.888 44.6572 14.471 44.4298 14.911C44.2025 15.3437 43.8872 15.659 43.4838 15.857C43.0805 16.055 42.6112 16.154 42.0758 16.154C41.5552 16.154 41.0895 16.055 40.6788 15.857C40.2755 15.659 39.9565 15.3437 39.7218 14.911C39.4945 14.471 39.3808 13.888 39.3808 13.162C39.3808 12.436 39.4945 11.853 39.7218 11.413C39.9565 10.973 40.2755 10.654 40.6788 10.456C41.0895 10.258 41.5552 10.159 42.0758 10.159ZM42.0758 10.379C41.7825 10.379 41.5368 10.599 41.3388 11.039C41.1408 11.4717 41.0418 12.1793 41.0418 13.162C41.0418 14.1447 41.1408 14.8523 41.3388 15.285C41.5368 15.7177 41.7825 15.934 42.0758 15.934C42.3765 15.934 42.6222 15.7177 42.8128 15.285C43.0108 14.8523 43.1098 14.1447 43.1098 13.162C43.1098 12.1793 43.0108 11.4717 42.8128 11.039C42.6222 10.599 42.3765 10.379 42.0758 10.379ZM51.1809 10.313V10.533C51.0416 10.5697 50.9096 10.6577 50.7849 10.797C50.6602 10.929 50.5392 11.1563 50.4219 11.479L48.8159 16.022C48.6986 16.0147 48.5776 16.011 48.4529 16.011C48.3356 16.011 48.2182 16.0147 48.1009 16.022L46.1429 11.16C46.0256 10.874 45.9082 10.7017 45.7909 10.643C45.6809 10.577 45.5856 10.544 45.5049 10.544V10.313C45.7396 10.3277 45.9816 10.3423 46.2309 10.357C46.4876 10.3643 46.7662 10.368 47.0669 10.368C47.2942 10.368 47.5326 10.3643 47.7819 10.357C48.0386 10.3423 48.2769 10.3277 48.4969 10.313V10.544C48.3429 10.544 48.2036 10.5513 48.0789 10.566C47.9616 10.5807 47.8809 10.6283 47.8369 10.709C47.7929 10.7897 47.8002 10.9327 47.8589 11.138L49.1459 14.548L49.0359 14.702L49.9049 12.293C50.0442 11.897 50.1029 11.5743 50.0809 11.325C50.0589 11.0683 49.9782 10.8777 49.8389 10.753C49.6996 10.621 49.5126 10.5477 49.2779 10.533V10.313C49.3879 10.3203 49.5052 10.3277 49.6299 10.335C49.7619 10.335 49.8866 10.3387 50.0039 10.346C50.1286 10.346 50.2386 10.346 50.3339 10.346C50.4806 10.346 50.6346 10.3423 50.7959 10.335C50.9572 10.3277 51.0856 10.3203 51.1809 10.313ZM54.6807 10.159C55.326 10.159 55.832 10.3497 56.1987 10.731C56.5654 11.1123 56.7487 11.7357 56.7487 12.601H53.1297L53.1077 12.392H55.3627C55.37 12.0327 55.348 11.7027 55.2967 11.402C55.2454 11.094 55.1647 10.8483 55.0547 10.665C54.9447 10.4817 54.798 10.39 54.6147 10.39C54.358 10.39 54.138 10.5513 53.9547 10.874C53.7787 11.1967 53.6724 11.732 53.6357 12.48L53.6687 12.546C53.6614 12.634 53.654 12.7257 53.6467 12.821C53.6467 12.9163 53.6467 13.0153 53.6467 13.118C53.6467 13.624 53.7164 14.0347 53.8557 14.35C54.0024 14.6653 54.1857 14.8963 54.4057 15.043C54.6257 15.1823 54.8494 15.252 55.0767 15.252C55.2307 15.252 55.3884 15.23 55.5497 15.186C55.7184 15.1347 55.887 15.0467 56.0557 14.922C56.2244 14.79 56.382 14.6067 56.5287 14.372L56.7267 14.438C56.6387 14.7167 56.4994 14.988 56.3087 15.252C56.118 15.516 55.876 15.7323 55.5827 15.901C55.2894 16.0697 54.9374 16.154 54.5267 16.154C54.028 16.154 53.588 16.0477 53.2067 15.835C52.8254 15.6223 52.5247 15.2997 52.3047 14.867C52.092 14.4343 51.9857 13.8843 51.9857 13.217C51.9857 12.535 52.0994 11.9667 52.3267 11.512C52.5614 11.0573 52.8804 10.72 53.2837 10.5C53.6944 10.2727 54.16 10.159 54.6807 10.159ZM61.6552 10.159C61.8899 10.159 62.0806 10.2103 62.2272 10.313C62.3739 10.4083 62.4802 10.533 62.5462 10.687C62.6196 10.841 62.6562 11.0023 62.6562 11.171C62.6562 11.4423 62.5756 11.666 62.4142 11.842C62.2602 12.0107 62.0549 12.095 61.7982 12.095C61.5416 12.095 61.3399 12.0327 61.1932 11.908C61.0539 11.776 60.9842 11.6037 60.9842 11.391C60.9842 11.1857 61.0282 11.017 61.1162 10.885C61.2116 10.7457 61.3289 10.6283 61.4682 10.533C61.3656 10.5037 61.2629 10.5073 61.1602 10.544C61.0209 10.566 60.8889 10.6247 60.7642 10.72C60.6396 10.808 60.5332 10.9217 60.4452 11.061C60.3572 11.193 60.2876 11.3397 60.2362 11.501C60.1849 11.655 60.1592 11.8053 60.1592 11.952V14.867C60.1592 15.219 60.2436 15.4573 60.4122 15.582C60.5882 15.7067 60.8486 15.769 61.1932 15.769V16C61.0246 15.9927 60.7789 15.9853 60.4562 15.978C60.1336 15.9633 59.7962 15.956 59.4442 15.956C59.1509 15.956 58.8539 15.9633 58.5532 15.978C58.2526 15.9853 58.0252 15.9927 57.8712 16V15.769C58.1279 15.769 58.3076 15.714 58.4102 15.604C58.5202 15.494 58.5752 15.285 58.5752 14.977V11.512C58.5752 11.182 58.5239 10.94 58.4212 10.786C58.3259 10.6247 58.1426 10.544 57.8712 10.544V10.313C58.1059 10.335 58.3332 10.346 58.5532 10.346C58.8612 10.346 59.1472 10.335 59.4112 10.313C59.6826 10.2837 59.9319 10.2433 60.1592 10.192V11.215C60.2472 11.017 60.3646 10.8373 60.5112 10.676C60.6579 10.5147 60.8266 10.39 61.0172 10.302C61.2079 10.2067 61.4206 10.159 61.6552 10.159ZM66.2436 10.159C66.8889 10.159 67.3949 10.3497 67.7616 10.731C68.1283 11.1123 68.3116 11.7357 68.3116 12.601H64.6926L64.6706 12.392H66.9256C66.9329 12.0327 66.9109 11.7027 66.8596 11.402C66.8083 11.094 66.7276 10.8483 66.6176 10.665C66.5076 10.4817 66.3609 10.39 66.1776 10.39C65.9209 10.39 65.7009 10.5513 65.5176 10.874C65.3416 11.1967 65.2353 11.732 65.1986 12.48L65.2316 12.546C65.2243 12.634 65.2169 12.7257 65.2096 12.821C65.2096 12.9163 65.2096 13.0153 65.2096 13.118C65.2096 13.624 65.2793 14.0347 65.4186 14.35C65.5653 14.6653 65.7486 14.8963 65.9686 15.043C66.1886 15.1823 66.4123 15.252 66.6396 15.252C66.7936 15.252 66.9513 15.23 67.1126 15.186C67.2813 15.1347 67.4499 15.0467 67.6186 14.922C67.7873 14.79 67.9449 14.6067 68.0916 14.372L68.2896 14.438C68.2016 14.7167 68.0623 14.988 67.8716 15.252C67.6809 15.516 67.4389 15.7323 67.1456 15.901C66.8523 16.0697 66.5003 16.154 66.0896 16.154C65.5909 16.154 65.1509 16.0477 64.7696 15.835C64.3883 15.6223 64.0876 15.2997 63.8676 14.867C63.6549 14.4343 63.5486 13.8843 63.5486 13.217C63.5486 12.535 63.6623 11.9667 63.8896 11.512C64.1243 11.0573 64.4433 10.72 64.8466 10.5C65.2573 10.2727 65.7229 10.159 66.2436 10.159ZM70.9286 7.475C71.2366 7.475 71.4786 7.552 71.6546 7.706C71.8379 7.85267 71.9296 8.058 71.9296 8.322C71.9296 8.586 71.8379 8.795 71.6546 8.949C71.4786 9.09567 71.2366 9.169 70.9286 9.169C70.6206 9.169 70.3749 9.09567 70.1916 8.949C70.0156 8.795 69.9276 8.586 69.9276 8.322C69.9276 8.058 70.0156 7.85267 70.1916 7.706C70.3749 7.552 70.6206 7.475 70.9286 7.475ZM71.7866 10.192V14.977C71.7866 15.285 71.8379 15.494 71.9406 15.604C72.0506 15.714 72.2339 15.769 72.4906 15.769V16C72.3586 15.9927 72.1532 15.9853 71.8746 15.978C71.5959 15.9633 71.3136 15.956 71.0276 15.956C70.7416 15.956 70.4519 15.9633 70.1586 15.978C69.8652 15.9853 69.6452 15.9927 69.4986 16V15.769C69.7552 15.769 69.9349 15.714 70.0376 15.604C70.1476 15.494 70.2026 15.285 70.2026 14.977V11.512C70.2026 11.182 70.1512 10.94 70.0486 10.786C69.9532 10.6247 69.7699 10.544 69.4986 10.544V10.313C69.7332 10.335 69.9606 10.346 70.1806 10.346C70.4886 10.346 70.7746 10.335 71.0386 10.313C71.3099 10.2837 71.5592 10.2433 71.7866 10.192ZM75.6523 18.068C75.1976 18.068 74.7906 18.0277 74.4313 17.947C74.0793 17.8737 73.8006 17.7563 73.5953 17.595C73.3973 17.441 73.2983 17.2503 73.2983 17.023C73.2983 16.7957 73.401 16.5903 73.6063 16.407C73.8116 16.231 74.116 16.0917 74.5193 15.989L74.6183 16.165C74.479 16.275 74.3763 16.3923 74.3103 16.517C74.2516 16.649 74.2223 16.7847 74.2223 16.924C74.2223 17.232 74.3616 17.4667 74.6403 17.628C74.9263 17.7967 75.3113 17.881 75.7953 17.881C76.1253 17.881 76.4186 17.837 76.6753 17.749C76.9393 17.661 77.1446 17.529 77.2913 17.353C77.4453 17.177 77.5223 16.9607 77.5223 16.704C77.5223 16.484 77.4416 16.297 77.2803 16.143C77.119 15.9963 76.7963 15.923 76.3123 15.923H75.6303C75.3296 15.923 75.0656 15.89 74.8383 15.824C74.6183 15.758 74.446 15.6553 74.3213 15.516C74.1966 15.3693 74.1343 15.186 74.1343 14.966C74.1343 14.658 74.2553 14.3867 74.4973 14.152C74.7393 13.9173 75.0986 13.6973 75.5753 13.492L75.6853 13.58C75.546 13.668 75.414 13.7633 75.2893 13.866C75.172 13.9613 75.1133 14.086 75.1133 14.24C75.1133 14.4747 75.26 14.592 75.5533 14.592H76.7523C77.1556 14.592 77.515 14.6397 77.8303 14.735C78.153 14.8303 78.406 14.988 78.5893 15.208C78.78 15.4207 78.8753 15.6993 78.8753 16.044C78.8753 16.4033 78.758 16.737 78.5233 17.045C78.296 17.353 77.944 17.5987 77.4673 17.782C76.9906 17.9727 76.3856 18.068 75.6523 18.068ZM75.7623 13.657C75.3443 13.657 74.9703 13.5947 74.6403 13.47C74.3103 13.3453 74.05 13.1547 73.8593 12.898C73.6686 12.6413 73.5733 12.3113 73.5733 11.908C73.5733 11.5047 73.6686 11.1747 73.8593 10.918C74.05 10.654 74.3103 10.4633 74.6403 10.346C74.9703 10.2213 75.3443 10.159 75.7623 10.159C76.1803 10.159 76.5543 10.2213 76.8843 10.346C77.2143 10.4633 77.4746 10.654 77.6653 10.918C77.856 11.1747 77.9513 11.5047 77.9513 11.908C77.9513 12.3113 77.856 12.6413 77.6653 12.898C77.4746 13.1547 77.2143 13.3453 76.8843 13.47C76.5543 13.5947 76.1803 13.657 75.7623 13.657ZM75.7623 13.459C75.9603 13.459 76.1143 13.349 76.2243 13.129C76.3343 12.9017 76.3893 12.4947 76.3893 11.908C76.3893 11.3213 76.3343 10.918 76.2243 10.698C76.1143 10.4707 75.9603 10.357 75.7623 10.357C75.5716 10.357 75.4176 10.4707 75.3003 10.698C75.1903 10.918 75.1353 11.3213 75.1353 11.908C75.1353 12.4947 75.1903 12.9017 75.3003 13.129C75.4176 13.349 75.5716 13.459 75.7623 13.459ZM77.4783 11.105L77.2583 11.028C77.3683 10.742 77.5443 10.5037 77.7863 10.313C78.0356 10.1223 78.3033 10.027 78.5893 10.027C78.824 10.027 79 10.093 79.1173 10.225C79.242 10.3497 79.3043 10.5147 79.3043 10.72C79.3043 10.94 79.2456 11.105 79.1283 11.215C79.011 11.3177 78.879 11.369 78.7323 11.369C78.6076 11.369 78.4903 11.325 78.3803 11.237C78.2776 11.149 78.219 11.017 78.2043 10.841C78.1896 10.6577 78.252 10.423 78.3913 10.137L78.4683 10.203C78.1896 10.3057 77.9806 10.4267 77.8413 10.566C77.702 10.698 77.581 10.8777 77.4783 11.105ZM84.2404 10.159C84.5484 10.159 84.7977 10.1993 84.9884 10.28C85.1864 10.3533 85.3404 10.456 85.4504 10.588C85.5677 10.7273 85.652 10.907 85.7034 11.127C85.762 11.347 85.7914 11.644 85.7914 12.018V14.977C85.7914 15.285 85.8427 15.494 85.9454 15.604C86.0554 15.714 86.2387 15.769 86.4954 15.769V16C86.356 15.9927 86.147 15.9853 85.8684 15.978C85.5897 15.9633 85.3147 15.956 85.0434 15.956C84.7647 15.956 84.4897 15.9633 84.2184 15.978C83.9544 15.9853 83.7527 15.9927 83.6134 16V15.769C83.8334 15.769 83.9874 15.714 84.0754 15.604C84.1634 15.494 84.2074 15.285 84.2074 14.977V11.556C84.2074 11.3727 84.189 11.215 84.1524 11.083C84.1157 10.9437 84.0497 10.8373 83.9544 10.764C83.859 10.6833 83.716 10.643 83.5254 10.643C83.3274 10.643 83.144 10.698 82.9754 10.808C82.814 10.918 82.682 11.072 82.5794 11.27C82.484 11.4607 82.4364 11.677 82.4364 11.919V14.977C82.4364 15.285 82.4804 15.494 82.5684 15.604C82.6637 15.714 82.8177 15.769 83.0304 15.769V16C82.8984 15.9927 82.704 15.9853 82.4474 15.978C82.198 15.9633 81.9377 15.956 81.6664 15.956C81.3877 15.956 81.1017 15.9633 80.8084 15.978C80.515 15.9853 80.295 15.9927 80.1484 16V15.769C80.405 15.769 80.5847 15.714 80.6874 15.604C80.7974 15.494 80.8524 15.285 80.8524 14.977V11.512C80.8524 11.182 80.801 10.94 80.6984 10.786C80.603 10.6247 80.4197 10.544 80.1484 10.544V10.313C80.383 10.335 80.6104 10.346 80.8304 10.346C81.1384 10.346 81.4244 10.335 81.6884 10.313C81.9597 10.2837 82.209 10.2433 82.4364 10.192V11.182C82.6197 10.808 82.869 10.544 83.1844 10.39C83.4997 10.236 83.8517 10.159 84.2404 10.159ZM97.9316 8.212V8.432C97.6969 8.46133 97.5209 8.52367 97.4036 8.619C97.2863 8.707 97.2056 8.85 97.1616 9.048C97.1249 9.246 97.1066 9.52467 97.1066 9.884V16.022C97.0186 16.0147 96.9269 16.011 96.8316 16.011C96.7436 16.011 96.6483 16.0147 96.5456 16.022L91.7716 9.972V14.196C91.7716 14.5993 91.7936 14.911 91.8376 15.131C91.8816 15.3437 91.9769 15.4977 92.1236 15.593C92.2776 15.681 92.5159 15.7433 92.8386 15.78V16C92.6993 15.9853 92.5159 15.978 92.2886 15.978C92.0613 15.9707 91.8486 15.967 91.6506 15.967C91.4819 15.967 91.3096 15.9707 91.1336 15.978C90.9576 15.978 90.8109 15.9853 90.6936 16V15.78C90.9283 15.7433 91.1043 15.681 91.2216 15.593C91.3389 15.505 91.4159 15.362 91.4526 15.164C91.4966 14.9587 91.5186 14.68 91.5186 14.328V9.378C91.5186 9.10667 91.4966 8.90867 91.4526 8.784C91.4159 8.652 91.3353 8.564 91.2106 8.52C91.0933 8.46867 90.9209 8.43933 90.6936 8.432V8.212C90.8109 8.21933 90.9576 8.22667 91.1336 8.234C91.3096 8.24133 91.4819 8.245 91.6506 8.245C91.8266 8.245 91.9953 8.24133 92.1566 8.234C92.3179 8.22667 92.4646 8.21933 92.5966 8.212L96.8536 13.459V10.016C96.8536 9.61267 96.8316 9.30467 96.7876 9.092C96.7436 8.872 96.6446 8.71433 96.4906 8.619C96.3439 8.52367 96.1093 8.46133 95.7866 8.432V8.212C95.9259 8.21933 96.1093 8.22667 96.3366 8.234C96.5639 8.24133 96.7766 8.245 96.9746 8.245C97.1506 8.245 97.3229 8.24133 97.4916 8.234C97.6676 8.22667 97.8143 8.21933 97.9316 8.212ZM100.353 16.077C100.023 16.077 99.7485 16.0147 99.5285 15.89C99.3085 15.7653 99.1472 15.6003 99.0445 15.395C98.9418 15.1823 98.8905 14.9513 98.8905 14.702C98.8905 14.3867 98.9602 14.13 99.0995 13.932C99.2462 13.734 99.4332 13.5727 99.6605 13.448C99.8878 13.3233 100.126 13.2207 100.375 13.14C100.632 13.0593 100.874 12.9823 101.101 12.909C101.336 12.8283 101.523 12.7367 101.662 12.634C101.809 12.524 101.882 12.3847 101.882 12.216V11.358C101.882 11.1673 101.849 10.9987 101.783 10.852C101.725 10.698 101.629 10.5807 101.497 10.5C101.373 10.4193 101.208 10.379 101.002 10.379C100.856 10.379 100.709 10.401 100.562 10.445C100.416 10.4817 100.295 10.5477 100.199 10.643C100.405 10.7163 100.562 10.83 100.672 10.984C100.79 11.1307 100.848 11.2993 100.848 11.49C100.848 11.7393 100.76 11.9373 100.584 12.084C100.416 12.2307 100.214 12.304 99.9795 12.304C99.7155 12.304 99.5138 12.2233 99.3745 12.062C99.2425 11.8933 99.1765 11.6917 99.1765 11.457C99.1765 11.2443 99.2278 11.0683 99.3305 10.929C99.4405 10.7897 99.5908 10.6577 99.7815 10.533C99.9868 10.4157 100.232 10.324 100.518 10.258C100.812 10.192 101.127 10.159 101.464 10.159C101.802 10.159 102.106 10.1957 102.377 10.269C102.649 10.335 102.876 10.4597 103.059 10.643C103.228 10.8117 103.338 11.0207 103.389 11.27C103.441 11.512 103.466 11.82 103.466 12.194V15.186C103.466 15.3693 103.485 15.4977 103.521 15.571C103.558 15.637 103.62 15.67 103.708 15.67C103.774 15.67 103.837 15.6517 103.895 15.615C103.961 15.5783 104.031 15.5343 104.104 15.483L104.214 15.67C104.06 15.802 103.881 15.9047 103.675 15.978C103.477 16.044 103.254 16.077 103.004 16.077C102.733 16.077 102.517 16.0403 102.355 15.967C102.194 15.8863 102.077 15.78 102.003 15.648C101.937 15.516 101.904 15.362 101.904 15.186C101.728 15.4647 101.516 15.6847 101.266 15.846C101.017 16 100.713 16.077 100.353 16.077ZM101.134 15.373C101.281 15.373 101.413 15.34 101.53 15.274C101.655 15.2007 101.772 15.0833 101.882 14.922V12.667C101.816 12.777 101.725 12.876 101.607 12.964C101.49 13.052 101.365 13.1437 101.233 13.239C101.101 13.327 100.973 13.426 100.848 13.536C100.731 13.646 100.636 13.7817 100.562 13.943C100.489 14.1043 100.452 14.2987 100.452 14.526C100.452 14.812 100.515 15.0247 100.639 15.164C100.764 15.3033 100.929 15.373 101.134 15.373ZM107.312 8.509V10.313H108.61V10.533H107.312V14.977C107.312 15.197 107.352 15.3547 107.433 15.45C107.514 15.538 107.635 15.582 107.796 15.582C107.928 15.582 108.06 15.5343 108.192 15.439C108.324 15.3363 108.441 15.164 108.544 14.922L108.731 15.021C108.614 15.351 108.434 15.6223 108.192 15.835C107.957 16.0477 107.635 16.154 107.224 16.154C106.982 16.154 106.769 16.121 106.586 16.055C106.403 15.9963 106.249 15.9047 106.124 15.78C105.963 15.6187 105.856 15.4207 105.805 15.186C105.754 14.944 105.728 14.6323 105.728 14.251V10.533H104.804V10.313H105.728V8.861C106.036 8.861 106.318 8.83533 106.575 8.784C106.839 8.72533 107.085 8.63367 107.312 8.509ZM114.974 10.192V14.801C114.974 15.131 115.025 15.3767 115.128 15.538C115.231 15.692 115.414 15.769 115.678 15.769V16C115.451 15.978 115.223 15.967 114.996 15.967C114.688 15.967 114.402 15.978 114.138 16C113.874 16.022 113.625 16.0623 113.39 16.121V15.131C113.214 15.4977 112.968 15.7617 112.653 15.923C112.345 16.077 112 16.154 111.619 16.154C111.311 16.154 111.062 16.1137 110.871 16.033C110.68 15.9523 110.53 15.8497 110.42 15.725C110.295 15.5857 110.207 15.4023 110.156 15.175C110.105 14.9477 110.079 14.6543 110.079 14.295V11.512C110.079 11.182 110.028 10.94 109.925 10.786C109.83 10.6247 109.646 10.544 109.375 10.544V10.313C109.61 10.335 109.837 10.346 110.057 10.346C110.365 10.346 110.651 10.335 110.915 10.313C111.186 10.2837 111.436 10.2433 111.663 10.192V14.746C111.663 14.9293 111.678 15.0907 111.707 15.23C111.744 15.3693 111.81 15.4793 111.905 15.56C112 15.6333 112.14 15.67 112.323 15.67C112.521 15.67 112.697 15.615 112.851 15.505C113.012 15.395 113.141 15.2447 113.236 15.054C113.339 14.856 113.39 14.636 113.39 14.394V11.512C113.39 11.182 113.339 10.94 113.236 10.786C113.141 10.6247 112.957 10.544 112.686 10.544V10.313C112.921 10.335 113.148 10.346 113.368 10.346C113.676 10.346 113.962 10.335 114.226 10.313C114.497 10.2837 114.747 10.2433 114.974 10.192ZM120.501 10.159C120.736 10.159 120.926 10.2103 121.073 10.313C121.22 10.4083 121.326 10.533 121.392 10.687C121.465 10.841 121.502 11.0023 121.502 11.171C121.502 11.4423 121.421 11.666 121.26 11.842C121.106 12.0107 120.901 12.095 120.644 12.095C120.387 12.095 120.186 12.0327 120.039 11.908C119.9 11.776 119.83 11.6037 119.83 11.391C119.83 11.1857 119.874 11.017 119.962 10.885C120.057 10.7457 120.175 10.6283 120.314 10.533C120.211 10.5037 120.109 10.5073 120.006 10.544C119.867 10.566 119.735 10.6247 119.61 10.72C119.485 10.808 119.379 10.9217 119.291 11.061C119.203 11.193 119.133 11.3397 119.082 11.501C119.031 11.655 119.005 11.8053 119.005 11.952V14.867C119.005 15.219 119.089 15.4573 119.258 15.582C119.434 15.7067 119.694 15.769 120.039 15.769V16C119.87 15.9927 119.625 15.9853 119.302 15.978C118.979 15.9633 118.642 15.956 118.29 15.956C117.997 15.956 117.7 15.9633 117.399 15.978C117.098 15.9853 116.871 15.9927 116.717 16V15.769C116.974 15.769 117.153 15.714 117.256 15.604C117.366 15.494 117.421 15.285 117.421 14.977V11.512C117.421 11.182 117.37 10.94 117.267 10.786C117.172 10.6247 116.988 10.544 116.717 10.544V10.313C116.952 10.335 117.179 10.346 117.399 10.346C117.707 10.346 117.993 10.335 118.257 10.313C118.528 10.2837 118.778 10.2433 119.005 10.192V11.215C119.093 11.017 119.21 10.8373 119.357 10.676C119.504 10.5147 119.672 10.39 119.863 10.302C120.054 10.2067 120.266 10.159 120.501 10.159ZM125.089 10.159C125.735 10.159 126.241 10.3497 126.607 10.731C126.974 11.1123 127.157 11.7357 127.157 12.601H123.538L123.516 12.392H125.771C125.779 12.0327 125.757 11.7027 125.705 11.402C125.654 11.094 125.573 10.8483 125.463 10.665C125.353 10.4817 125.207 10.39 125.023 10.39C124.767 10.39 124.547 10.5513 124.363 10.874C124.187 11.1967 124.081 11.732 124.044 12.48L124.077 12.546C124.07 12.634 124.063 12.7257 124.055 12.821C124.055 12.9163 124.055 13.0153 124.055 13.118C124.055 13.624 124.125 14.0347 124.264 14.35C124.411 14.6653 124.594 14.8963 124.814 15.043C125.034 15.1823 125.258 15.252 125.485 15.252C125.639 15.252 125.797 15.23 125.958 15.186C126.127 15.1347 126.296 15.0467 126.464 14.922C126.633 14.79 126.791 14.6067 126.937 14.372L127.135 14.438C127.047 14.7167 126.908 14.988 126.717 15.252C126.527 15.516 126.285 15.7323 125.991 15.901C125.698 16.0697 125.346 16.154 124.935 16.154C124.437 16.154 123.997 16.0477 123.615 15.835C123.234 15.6223 122.933 15.2997 122.713 14.867C122.501 14.4343 122.394 13.8843 122.394 13.217C122.394 12.535 122.508 11.9667 122.735 11.512C122.97 11.0573 123.289 10.72 123.692 10.5C124.103 10.2727 124.569 10.159 125.089 10.159Z" fill="#F6F6F6"/>
<path d="M38.3057 22.4V28H38.7457V22.4H38.3057ZM50.1677 22.4V27.088L45.9117 22.184V28H46.3517V23.328L50.6077 28.216V22.4H50.1677ZM57.7748 22.4V28H58.2148V22.4H57.7748ZM64.8208 22.816H66.2928V28H66.7328V22.816H68.2048V22.4H64.8208V22.816ZM74.8141 22.4V28H75.2541V22.4H74.8141ZM82.8681 26.12H85.7401L85.5961 25.704H83.0121L82.8681 26.12ZM84.2921 23.2L85.3961 25.872L85.4361 25.976L86.2681 28H86.7641L84.2921 22.184L81.8201 28H82.3161L83.1561 25.944L83.2041 25.848L84.2921 23.2ZM92.2236 22.816H93.6956V28H94.1356V22.816H95.6076V22.4H92.2236V22.816ZM102.217 22.4V28H102.657V22.4H102.217ZM111.695 27.192L109.719 22.4H109.223L111.695 28.216L114.167 22.4H113.671L111.695 27.192ZM120.981 28H123.757V27.584H120.981V28ZM120.981 22.816H123.757V22.4H120.981V22.816ZM120.981 25.136H123.597V24.72H120.981V25.136ZM120.749 22.4V28H121.189V22.4H120.749Z" fill="#98DF5B"/>
</svg>
